<svg width="200" height="200" viewBox="0 0 200 200" fill="none" xmlns="http://www.w3.org/2000/svg">
  <!-- Background circle -->
  <circle cx="100" cy="100" r="95" fill="#1a1a1a" stroke="#FFA500" stroke-width="4"/>
  
  <!-- Head -->
  <circle cx="100" cy="80" r="35" fill="#FFD4A3"/>
  
  <!-- Hair -->
  <path d="M 65 70 Q 65 45 100 45 Q 135 45 135 70 L 135 75 Q 130 65 100 65 Q 70 65 65 75 Z" fill="#3D2817"/>
  
  <!-- Eyes -->
  <circle cx="88" cy="75" r="4" fill="#2C2416"/>
  <circle cx="112" cy="75" r="4" fill="#2C2416"/>
  
  <!-- Eyebrows -->
  <path d="M 82 68 Q 88 66 94 68" stroke="#2C2416" stroke-width="2" stroke-linecap="round" fill="none"/>
  <path d="M 106 68 Q 112 66 118 68" stroke="#2C2416" stroke-width="2" stroke-linecap="round" fill="none"/>
  
  <!-- Nose -->
  <path d="M 100 80 L 98 88 L 102 88 Z" fill="#FFB380"/>
  
  <!-- Smile -->
  <path d="M 88 92 Q 100 98 112 92" stroke="#2C2416" stroke-width="2" stroke-linecap="round" fill="none"/>
  
  <!-- Mustache -->
  <path d="M 85 86 Q 88 89 92 88 Q 96 87 100 86 Q 104 87 108 88 Q 112 89 115 86" stroke="#3D2817" stroke-width="3" stroke-linecap="round" fill="none"/>
  
  <!-- Bow tie -->
  <path d="M 90 110 L 80 115 L 90 120 L 100 115 L 110 120 L 120 115 L 110 110 L 100 115 Z" fill="#FF4444"/>
  <circle cx="100" cy="115" r="3" fill="#CC0000"/>
  
  <!-- Vest/Shirt -->
  <path d="M 75 115 Q 75 140 80 155 L 120 155 Q 125 140 125 115 L 120 115 L 115 125 L 100 120 L 85 125 L 80 115 Z" fill="#1a1a1a" stroke="#FFA500" stroke-width="2"/>
  
  <!-- Shirt collar -->
  <path d="M 85 110 L 80 115 L 85 125" stroke="#FFFFFF" stroke-width="2" fill="none"/>
  <path d="M 115 110 L 120 115 L 115 125" stroke="#FFFFFF" stroke-width="2" fill="none"/>
  
  <!-- Cocktail shaker in hand -->
  <g transform="translate(140, 130)">
    <rect x="0" y="0" width="15" height="30" rx="2" fill="#C0C0C0" stroke="#888" stroke-width="1"/>
    <rect x="2" y="2" width="11" height="4" fill="#888"/>
    <circle cx="7.5" cy="15" r="3" fill="#FFD700"/>
  </g>
  
  <!-- Text bubble indicator (optional) -->
  <circle cx="100" cy="165" r="3" fill="#FFA500" opacity="0.6"/>
  <circle cx="110" cy="168" r="2" fill="#FFA500" opacity="0.4"/>
  <circle cx="118" cy="170" r="1.5" fill="#FFA500" opacity="0.3"/>
</svg>
